<svg xmlns="http://www.w3.org/2000/svg" width="10.953" height="11.202" viewBox="0 0 10.953 11.202">
  <g id="calendar" transform="translate(-5.411)" opacity="0.36">
    <g id="Grupo_373" data-name="Grupo 373" transform="translate(5.411)">
      <path id="Trazado_139" data-name="Trazado 139" d="M118.431,258.5a.254.254,0,0,0-.254-.254h-.887a.254.254,0,0,0-.254.254v.887a.254.254,0,0,0,.254.254h.887a.254.254,0,0,0,.254-.254V258.5Z" transform="translate(-114.474 -252.316)" fill="#757575"/>
      <path id="Trazado_140" data-name="Trazado 140" d="M215.065,258.5a.254.254,0,0,0-.254-.254h-.887a.254.254,0,0,0-.254.254v.887a.254.254,0,0,0,.254.254h.887a.254.254,0,0,0,.254-.254Z" transform="translate(-208.891 -252.316)" fill="#757575"/>
      <path id="Trazado_141" data-name="Trazado 141" d="M311.694,258.5a.254.254,0,0,0-.254-.254h-.887a.254.254,0,0,0-.254.254v.887a.254.254,0,0,0,.254.254h.887a.254.254,0,0,0,.254-.254Z" transform="translate(-303.302 -252.316)" fill="#757575"/>
      <path id="Trazado_142" data-name="Trazado 142" d="M118.431,355.129a.254.254,0,0,0-.254-.254h-.887a.254.254,0,0,0-.254.254v.887a.254.254,0,0,0,.254.254h.887a.254.254,0,0,0,.254-.254v-.887Z" transform="translate(-114.474 -346.732)" fill="#757575"/>
      <path id="Trazado_143" data-name="Trazado 143" d="M215.065,355.129a.254.254,0,0,0-.254-.254h-.887a.254.254,0,0,0-.254.254v.887a.254.254,0,0,0,.254.254h.887a.254.254,0,0,0,.254-.254Z" transform="translate(-208.891 -346.732)" fill="#757575"/>
      <path id="Trazado_144" data-name="Trazado 144" d="M311.694,355.129a.254.254,0,0,0-.254-.254h-.887a.254.254,0,0,0-.254.254v.887a.254.254,0,0,0,.254.254h.887a.254.254,0,0,0,.254-.254v-.887Z" transform="translate(-303.302 -346.732)" fill="#757575"/>
      <path id="Trazado_145" data-name="Trazado 145" d="M15.389,54.147V55.5a1.107,1.107,0,0,1-1.109,1.106h-.7A1.112,1.112,0,0,1,12.465,55.5v-1.36H9.311V55.5A1.112,1.112,0,0,1,8.2,56.608H7.5A1.107,1.107,0,0,1,6.386,55.5V54.147a1.009,1.009,0,0,0-.975,1v7.941a1.009,1.009,0,0,0,1,1.01H15.36a1.01,1.01,0,0,0,1-1.01V55.15A1.009,1.009,0,0,0,15.389,54.147Zm-.325,8.45a.434.434,0,0,1-.434.434h-7.5a.434.434,0,0,1-.434-.434v-4.1a.434.434,0,0,1,.434-.434h7.5a.434.434,0,0,1,.434.434v4.1Z" transform="translate(-5.411 -52.9)" fill="#757575"/>
      <path id="Trazado_146" data-name="Trazado 146" d="M79.93,2.982h.692A.38.38,0,0,0,81,2.6V.38a.38.38,0,0,0-.38-.38H79.93a.38.38,0,0,0-.38.38V2.6A.38.38,0,0,0,79.93,2.982Z" transform="translate(-77.849 0)" fill="#757575"/>
      <path id="Trazado_147" data-name="Trazado 147" d="M344.838,2.982h.692a.38.38,0,0,0,.38-.38V.38a.38.38,0,0,0-.38-.38h-.692a.38.38,0,0,0-.38.38V2.6A.38.38,0,0,0,344.838,2.982Z" transform="translate(-336.678 0)" fill="#757575"/>
    </g>
  </g>
</svg>
