<svg xmlns="http://www.w3.org/2000/svg" width="22.954" height="18.036" viewBox="0 0 22.954 18.036">
  <g id="email" transform="translate(0 -59.013)">
    <g id="Grupo_377" data-name="Grupo 377" transform="translate(0 59.013)">
      <path id="Trazado_149" data-name="Trazado 149" d="M37.144,330.537a1.962,1.962,0,0,0,1.343-.507l-6.5-6.5-.45.324q-.73.538-1.185.839a7.3,7.3,0,0,1-1.21.615,3.689,3.689,0,0,1-1.409.314H27.7a3.688,3.688,0,0,1-1.409-.314,7.276,7.276,0,0,1-1.21-.615q-.455-.3-1.185-.839c-.136-.1-.286-.209-.449-.325l-6.5,6.505a1.962,1.962,0,0,0,1.343.507Z" transform="translate(-16.24 -312.502)" fill="#fff"/>
      <path id="Trazado_150" data-name="Trazado 150" d="M1.294,199.67A6.791,6.791,0,0,1,0,198.555v9.894l5.732-5.732Q4.012,201.517,1.294,199.67Z" transform="translate(0 -192.74)" fill="#fff"/>
      <path id="Trazado_151" data-name="Trazado 151" d="M417.758,199.67q-2.617,1.771-4.449,3.05l5.73,5.73v-9.895A7.072,7.072,0,0,1,417.758,199.67Z" transform="translate(-396.085 -192.74)" fill="#fff"/>
      <path id="Trazado_152" data-name="Trazado 152" d="M20.91,59.013H2.055a1.829,1.829,0,0,0-1.518.666,2.584,2.584,0,0,0-.532,1.665,2.993,2.993,0,0,0,.7,1.749,6.355,6.355,0,0,0,1.5,1.479q.435.308,2.626,1.825c.788.546,1.474,1.022,2.063,1.433.5.35.935.653,1.293.9l.191.136.353.255q.416.3.692.487t.666.416a3.886,3.886,0,0,0,.737.346,2.038,2.038,0,0,0,.64.115H11.5a2.039,2.039,0,0,0,.64-.115,3.877,3.877,0,0,0,.737-.346q.391-.231.666-.416t.692-.487l.353-.254.192-.136,1.3-.9,4.7-3.262A6.092,6.092,0,0,0,22.332,63a3.389,3.389,0,0,0,.627-1.934,2.066,2.066,0,0,0-2.05-2.05Z" transform="translate(-0.006 -59.013)" fill="#fff"/>
    </g>
  </g>
</svg>
