<svg xmlns="http://www.w3.org/2000/svg" width="20.811" height="20.811" viewBox="0 0 20.811 20.811">
  <g id="location" transform="translate(0)">
    <path id="Trazado_156" data-name="Trazado 156" d="M212.829,75a1.829,1.829,0,1,0,1.829,1.829A1.831,1.831,0,0,0,212.829,75Zm0,0" transform="translate(-202.424 -71.952)" fill="#fff"/>
    <path id="Trazado_157" data-name="Trazado 157" d="M140.877,0a4.878,4.878,0,0,0-4.128,7.476l4.128,6.588,4.128-6.588A4.878,4.878,0,0,0,140.877,0Zm0,7.926a3.048,3.048,0,1,1,3.048-3.048A3.052,3.052,0,0,1,140.877,7.926Zm0,0" transform="translate(-130.472)" fill="#fff"/>
    <path id="Trazado_158" data-name="Trazado 158" d="M183,424.7h5.933l-.469-3.7h-5.007Zm0,0" transform="translate(-175.558 -403.888)" fill="#fff"/>
    <path id="Trazado_159" data-name="Trazado 159" d="M197.992,326.352h2.069l-1.727-2.739Zm0,0" transform="translate(-189.945 -310.46)" fill="#fff"/>
    <path id="Trazado_160" data-name="Trazado 160" d="M332.754,304.658h4.8L336.033,301h-3.748Zm0,0" transform="translate(-318.779 -288.766)" fill="#fff"/>
    <path id="Trazado_161" data-name="Trazado 161" d="M50,304.658h4.787L55.24,301H51.52Zm0,0" transform="translate(-47.964 -288.766)" fill="#fff"/>
    <path id="Trazado_162" data-name="Trazado 162" d="M263.094,327.18h2.052l-.347-2.7Zm0,0" transform="translate(-252.4 -311.288)" fill="#fff"/>
    <path id="Trazado_163" data-name="Trazado 163" d="M6.666,421H1.524L0,424.7H6.209Zm0,0" transform="translate(0 -403.888)" fill="#fff"/>
    <path id="Trazado_164" data-name="Trazado 164" d="M352.827,421h-5.155l.469,3.7h6.21Zm0,0" transform="translate(-333.541 -403.888)" fill="#fff"/>
  </g>
</svg>
