<svg xmlns="http://www.w3.org/2000/svg" width="20.758" height="20.758" viewBox="0 0 20.758 20.758">
  <g id="phone-fill" transform="translate(-0.006)">
    <g id="Grupo_378" data-name="Grupo 378" transform="translate(0.006)">
      <path id="Trazado_153" data-name="Trazado 153" d="M15.787,57.877a1.454,1.454,0,0,0-2.2,0c-.514.51-1.028,1.019-1.533,1.538a.3.3,0,0,1-.423.078c-.333-.181-.687-.328-1.006-.527a15.947,15.947,0,0,1-3.844-3.5A9.108,9.108,0,0,1,5.4,53.259a.316.316,0,0,1,.078-.406c.514-.5,1.015-1.006,1.521-1.516a1.46,1.46,0,0,0,0-2.251c-.4-.406-.8-.8-1.205-1.209s-.825-.834-1.244-1.244a1.464,1.464,0,0,0-2.2,0c-.518.51-1.015,1.032-1.542,1.533a2.5,2.5,0,0,0-.786,1.689,7.156,7.156,0,0,0,.553,3.08A18.715,18.715,0,0,0,3.9,58.473,20.556,20.556,0,0,0,10.7,63.8a9.846,9.846,0,0,0,3.771,1.1,2.764,2.764,0,0,0,2.371-.9c.441-.492.937-.942,1.4-1.413a1.47,1.47,0,0,0,.009-2.238Q17.027,59.105,15.787,57.877Z" transform="translate(-0.006 -44.144)" fill="#fff"/>
      <path id="Trazado_154" data-name="Trazado 154" d="M242.536,102.142l1.594-.272A7.155,7.155,0,0,0,238.079,96l-.225,1.6a5.529,5.529,0,0,1,4.682,4.54Z" transform="translate(-227.58 -91.853)" fill="#fff"/>
      <path id="Trazado_155" data-name="Trazado 155" d="M249.717,3.361A11.753,11.753,0,0,0,242.979,0l-.225,1.6a10.255,10.255,0,0,1,8.678,8.41l1.594-.272A11.839,11.839,0,0,0,249.717,3.361Z" transform="translate(-232.268)" fill="#fff"/>
    </g>
  </g>
</svg>
