<svg xmlns="http://www.w3.org/2000/svg" width="19.179" height="15.583" viewBox="0 0 19.179 15.583">
  <g id="twitter" transform="translate(0 0)">
    <g id="Grupo_67" data-name="Grupo 67" transform="translate(0 0)">
      <path id="Trazado_59" data-name="Trazado 59" d="M19.179,80.314a8.2,8.2,0,0,1-2.266.621,3.91,3.91,0,0,0,1.73-2.173,7.858,7.858,0,0,1-2.493.952,3.932,3.932,0,0,0-6.8,2.689,4.049,4.049,0,0,0,.091.9,11.129,11.129,0,0,1-8.1-4.113,3.933,3.933,0,0,0,1.208,5.255,3.883,3.883,0,0,1-1.776-.484V84a3.95,3.95,0,0,0,3.15,3.863,3.925,3.925,0,0,1-1.031.129,3.476,3.476,0,0,1-.744-.067,3.969,3.969,0,0,0,3.674,2.739A7.9,7.9,0,0,1,.941,92.341,7.364,7.364,0,0,1,0,92.287a11.069,11.069,0,0,0,6.032,1.765A11.114,11.114,0,0,0,17.223,82.863c0-.174-.006-.342-.014-.508A7.844,7.844,0,0,0,19.179,80.314Z" transform="translate(0 -78.469)" fill="#fff"/>
    </g>
  </g>
</svg>
